<svg width="407" height="132" viewBox="0 0 407 132" fill="none" xmlns="http://www.w3.org/2000/svg">
<path d="M45.7 72.3C62.7 72.3 71.7 63.1 71.7 45.3V1.3H61.6V44.6C61.6 56.6 57.3 63 45.7 63C34 63 30 56.7 30 44.6V1.3H19.8V45.8C19.8 63.3 28.8 72.3 45.7 72.3Z" fill="white"/>
<path d="M86.125 71H96.225V41.4H107.625C122.725 41.4 131.025 34.3 131.025 21.2C131.025 8.1 122.925 1.3 107.625 1.3H86.125V71ZM96.225 32.4V10.4H106.625C115.925 10.4 120.925 13.7 120.925 21.3C120.925 29 115.625 32.4 106.625 32.4H96.225Z" fill="white"/>
<path d="M157.789 71H160.389L180.589 7.79999L200.689 71H203.289L222.689 1.3H220.589L201.989 68.4L181.689 4.79999H179.389L159.189 68.4L140.589 1.3H138.389L157.789 71Z" fill="white"/>
<path d="M223.729 71H226.029L233.229 50.2H265.429L272.629 71H274.929L250.529 1.3H248.029L223.729 71ZM249.329 3.5L264.829 48.3H233.829L249.329 3.5Z" fill="white"/>
<path d="M303.902 71.6C315.402 71.6 324.102 63.7 324.102 52.7C324.102 41.5 315.102 37.4 304.402 33.4C294.202 29.6 286.602 26.3 286.602 17.2C286.602 8.89999 293.302 2.6 303.302 2.6C310.902 2.6 316.102 6.2 319.602 12.2L321.202 11.1C317.402 4.4 311.302 0.699997 303.302 0.699997C292.202 0.699997 284.602 7.79999 284.602 17.3C284.602 27.5 293.302 31.3 302.802 34.9C312.602 38.6 322.102 42 322.102 52.9C322.102 62.6 314.302 69.7 303.902 69.7C292.802 69.7 284.802 63.9 282.902 53L280.902 53.5C282.802 64.6 291.302 71.6 303.902 71.6Z" fill="white"/>
<path d="M339.888 71H341.888V36.6H383.488V71H385.587V1.3H383.488V34.7H341.888V1.3H339.888V71Z" fill="white"/>
<path d="M7.2 126H7.725V109.05H14.3V108.575H0.625V109.05H7.2V126Z" fill="white"/>
<path d="M14.3326 110.925H15.0076V108.575H14.3326V110.925ZM14.4326 126H14.9326V113.675H14.4326V126Z" fill="white"/>
<path d="M24.0375 126.125C26.1875 126.125 27.8125 125 28.5625 122.975L28.0625 122.775C27.4125 124.7 25.9125 125.675 24.0375 125.675C20.8875 125.675 19.3375 122.95 19.3375 119.825C19.3375 116.725 20.8875 114 24.0375 114C25.9125 114 27.4125 114.975 28.0625 116.9L28.5625 116.7C27.7875 114.6 26.1125 113.55 24.0375 113.55C20.9125 113.55 18.8375 116.15 18.8375 119.825C18.8375 123.525 20.9125 126.125 24.0375 126.125Z" fill="white"/>
<path d="M32.1805 126H32.6805V121.625L35.7055 118.5L40.6805 126H41.2805L36.0555 118.15L40.4055 113.675H39.7305L32.6805 120.95V108.575H32.1805V126Z" fill="white"/>
<path d="M48.601 126.125C50.451 126.125 51.651 125.675 53.126 124.225L52.726 123.875C51.451 125.2 50.401 125.65 48.601 125.65C45.676 125.65 43.776 123.525 43.776 119.825H53.376C53.401 119.65 53.426 119.3 53.426 118.8C53.426 116.575 52.126 113.55 48.401 113.55C45.301 113.55 43.276 116.2 43.276 119.925C43.276 123.625 45.326 126.125 48.601 126.125ZM43.776 119.425C43.951 116.25 45.751 114 48.401 114C51.801 114 52.951 116.7 52.951 118.7C52.951 118.925 52.951 119.175 52.926 119.425H43.776Z" fill="white"/>
<path d="M60.3201 126.125C60.8701 126.125 61.3201 126.025 61.8951 125.875V125.425C61.3701 125.6 60.8451 125.675 60.3951 125.675C59.2701 125.675 58.7701 124.9 58.7701 123.55V114.1H61.8951V113.675H58.7701V109.3L58.2701 109.675V113.675H55.2201V114.1H58.2701V123.625C58.2701 125.2 58.8951 126.125 60.3201 126.125Z" fill="white"/>
<path d="M68.6918 126.125C71.1668 126.125 72.7418 124.825 72.7418 122.75C72.7418 120.25 70.6418 119.7 68.3918 119.175C66.4668 118.725 65.0418 118.225 65.0418 116.5C65.0418 115.025 66.3918 113.975 68.2918 113.975C69.8918 113.975 71.1668 114.675 71.9418 116.225L72.3168 116C71.5418 114.325 70.0168 113.55 68.2918 113.55C66.0918 113.55 64.5668 114.8 64.5668 116.525C64.5668 118.575 66.2418 119.15 68.2668 119.625C70.2418 120.1 72.2668 120.575 72.2668 122.8C72.2668 124.625 70.7918 125.675 68.6918 125.675C66.5168 125.675 64.8668 124.575 64.2668 122.9L63.8668 123.15C64.5418 124.95 66.3418 126.125 68.6918 126.125Z" fill="white"/>
<path d="M83.035 131.1H83.535V122.225C84.26 124.55 86.235 126.125 88.685 126.125C91.86 126.125 94.31 123.45 94.31 119.85C94.31 116.275 91.885 113.55 88.685 113.55C86.31 113.55 84.335 114.975 83.535 117.4V113.675H83.035V131.1ZM88.635 125.65C85.685 125.65 83.51 123.175 83.51 119.85C83.51 116.525 85.685 114.025 88.635 114.025C91.585 114.025 93.81 116.525 93.81 119.85C93.81 123.175 91.585 125.65 88.635 125.65Z" fill="white"/>
<path d="M101.772 126.125C103.872 126.125 105.947 124.85 106.672 122.675V126H107.172V118.4C107.172 115.2 105.572 113.55 102.597 113.55C100.622 113.55 99.2717 114.25 98.0467 115.9L98.4217 116.2C99.5467 114.65 100.822 114 102.597 114C105.297 114 106.672 115.475 106.672 118.4V119.1H102.497C100.972 119.1 99.7467 119.325 98.8217 119.975C98.0717 120.5 97.5967 121.375 97.5967 122.6C97.5967 124.75 99.1217 126.125 101.772 126.125ZM101.822 125.7C99.4717 125.7 98.0967 124.475 98.0967 122.6C98.0967 121.55 98.4967 120.8 99.1717 120.3C99.9467 119.75 101.122 119.525 102.547 119.525H106.672V120.575C106.672 123.5 104.472 125.7 101.822 125.7Z" fill="white"/>
<path d="M111.477 126H111.977V119.5C111.977 118.15 112.052 117.55 112.202 117.025C112.802 114.85 114.627 114.025 116.077 114.025C116.652 114.025 117.152 114.15 117.577 114.325L117.852 113.875C117.352 113.65 116.677 113.55 116.152 113.55C114.652 113.55 112.652 114.325 111.977 116.525V113.675H111.477V126Z" fill="white"/>
<path d="M123.598 126.125C125.698 126.125 127.773 124.85 128.498 122.675V126H128.998V118.4C128.998 115.2 127.398 113.55 124.423 113.55C122.448 113.55 121.098 114.25 119.873 115.9L120.248 116.2C121.373 114.65 122.648 114 124.423 114C127.123 114 128.498 115.475 128.498 118.4V119.1H124.323C122.798 119.1 121.573 119.325 120.648 119.975C119.898 120.5 119.423 121.375 119.423 122.6C119.423 124.75 120.948 126.125 123.598 126.125ZM123.648 125.7C121.298 125.7 119.923 124.475 119.923 122.6C119.923 121.55 120.323 120.8 120.998 120.3C121.773 119.75 122.948 119.525 124.373 119.525H128.498V120.575C128.498 123.5 126.298 125.7 123.648 125.7Z" fill="white"/>
<path d="M141.623 126.125C142.098 126.125 142.548 126.025 143.073 125.85V125.4C142.573 125.575 142.148 125.65 141.748 125.65C140.798 125.65 140.298 125.05 140.298 123.625V108.575H139.798V123.675C139.798 125.375 140.423 126.125 141.623 126.125Z" fill="white"/>
<path d="M149.623 126.125C151.723 126.125 153.798 124.85 154.523 122.675V126H155.023V118.4C155.023 115.2 153.423 113.55 150.448 113.55C148.473 113.55 147.123 114.25 145.898 115.9L146.273 116.2C147.398 114.65 148.673 114 150.448 114C153.148 114 154.523 115.475 154.523 118.4V119.1H150.348C148.823 119.1 147.598 119.325 146.673 119.975C145.923 120.5 145.448 121.375 145.448 122.6C145.448 124.75 146.973 126.125 149.623 126.125ZM149.673 125.7C147.323 125.7 145.948 124.475 145.948 122.6C145.948 121.55 146.348 120.8 147.023 120.3C147.798 119.75 148.973 119.525 150.398 119.525H154.523V120.575C154.523 123.5 152.323 125.7 149.673 125.7Z" fill="white"/>
<path d="M162.862 126H163.387L168.437 113.675H167.837L163.112 125.425L158.387 113.675H157.812L162.862 126Z" fill="white"/>
<path d="M175.014 126.125C177.114 126.125 179.189 124.85 179.914 122.675V126H180.414V118.4C180.414 115.2 178.814 113.55 175.839 113.55C173.864 113.55 172.514 114.25 171.289 115.9L171.664 116.2C172.789 114.65 174.064 114 175.839 114C178.539 114 179.914 115.475 179.914 118.4V119.1H175.739C174.214 119.1 172.989 119.325 172.064 119.975C171.314 120.5 170.839 121.375 170.839 122.6C170.839 124.75 172.364 126.125 175.014 126.125ZM175.064 125.7C172.714 125.7 171.339 124.475 171.339 122.6C171.339 121.55 171.739 120.8 172.414 120.3C173.189 119.75 174.364 119.525 175.789 119.525H179.914V120.575C179.914 123.5 177.714 125.7 175.064 125.7Z" fill="white"/>
<path d="M191.214 126H191.714V119.5C191.714 118.15 191.789 117.55 191.939 117.025C192.539 114.85 194.364 114.025 195.814 114.025C196.389 114.025 196.889 114.15 197.314 114.325L197.589 113.875C197.089 113.65 196.414 113.55 195.889 113.55C194.389 113.55 192.389 114.325 191.714 116.525V113.675H191.214V126Z" fill="white"/>
<path d="M203.548 112.05H204.023L206.723 108.575H206.173L203.548 112.05ZM202.748 126.125C204.848 126.125 206.923 124.85 207.648 122.675V126H208.148V118.4C208.148 115.2 206.548 113.55 203.573 113.55C201.598 113.55 200.248 114.25 199.023 115.9L199.398 116.2C200.523 114.65 201.798 114 203.573 114C206.273 114 207.648 115.475 207.648 118.4V119.1H203.473C201.948 119.1 200.723 119.325 199.798 119.975C199.048 120.5 198.573 121.375 198.573 122.6C198.573 124.75 200.098 126.125 202.748 126.125ZM202.798 125.7C200.448 125.7 199.073 124.475 199.073 122.6C199.073 121.55 199.473 120.8 200.148 120.3C200.923 119.75 202.098 119.525 203.523 119.525H207.648V120.575C207.648 123.5 205.448 125.7 202.798 125.7Z" fill="white"/>
<path d="M212.454 131.1H212.954V122.225C213.679 124.55 215.654 126.125 218.104 126.125C221.279 126.125 223.729 123.45 223.729 119.85C223.729 116.275 221.304 113.55 218.104 113.55C215.729 113.55 213.754 114.975 212.954 117.4V113.675H212.454V131.1ZM218.054 125.65C215.104 125.65 212.929 123.175 212.929 119.85C212.929 116.525 215.104 114.025 218.054 114.025C221.004 114.025 223.229 116.525 223.229 119.85C223.229 123.175 221.004 125.65 218.054 125.65Z" fill="white"/>
<path d="M227.541 110.925H228.216V108.575H227.541V110.925ZM227.641 126H228.141V113.675H227.641V126Z" fill="white"/>
<path d="M237.696 126.125C240.146 126.125 242.071 124.575 242.821 122.25V126H243.321V108.575H242.821V117.475C242.096 115.125 240.146 113.55 237.696 113.55C234.496 113.55 232.046 116.225 232.046 119.825C232.046 123.4 234.471 126.125 237.696 126.125ZM237.746 125.65C234.771 125.65 232.546 123.125 232.546 119.825C232.546 116.525 234.771 114.025 237.746 114.025C240.671 114.025 242.846 116.5 242.846 119.825C242.846 123.15 240.671 125.65 237.746 125.65Z" fill="white"/>
<path d="M252.881 126.125C256.206 126.125 258.531 123.55 258.531 119.825C258.531 116.125 256.231 113.55 252.881 113.55C249.531 113.55 247.231 116.125 247.231 119.825C247.231 123.55 249.556 126.125 252.881 126.125ZM252.881 125.675C249.806 125.675 247.731 123.275 247.731 119.825C247.731 116.375 249.831 114 252.881 114C255.931 114 258.031 116.375 258.031 119.825C258.031 123.275 255.956 125.675 252.881 125.675Z" fill="white"/>
<path d="M265.42 126.125C267.895 126.125 269.47 124.825 269.47 122.75C269.47 120.25 267.37 119.7 265.12 119.175C263.195 118.725 261.77 118.225 261.77 116.5C261.77 115.025 263.12 113.975 265.02 113.975C266.62 113.975 267.895 114.675 268.67 116.225L269.045 116C268.27 114.325 266.745 113.55 265.02 113.55C262.82 113.55 261.295 114.8 261.295 116.525C261.295 118.575 262.97 119.15 264.995 119.625C266.97 120.1 268.995 120.575 268.995 122.8C268.995 124.625 267.52 125.675 265.42 125.675C263.245 125.675 261.595 124.575 260.995 122.9L260.595 123.15C261.27 124.95 263.07 126.125 265.42 126.125Z" fill="white"/>
<path d="M283.363 126.125C285.463 126.125 287.538 124.85 288.263 122.675V126H288.763V118.4C288.763 115.2 287.163 113.55 284.188 113.55C282.213 113.55 280.863 114.25 279.638 115.9L280.013 116.2C281.138 114.65 282.413 114 284.188 114C286.888 114 288.263 115.475 288.263 118.4V119.1H284.088C282.563 119.1 281.338 119.325 280.413 119.975C279.663 120.5 279.188 121.375 279.188 122.6C279.188 124.75 280.713 126.125 283.363 126.125ZM283.413 125.7C281.063 125.7 279.688 124.475 279.688 122.6C279.688 121.55 280.088 120.8 280.763 120.3C281.538 119.75 282.713 119.525 284.138 119.525H288.263V120.575C288.263 123.5 286.063 125.7 283.413 125.7Z" fill="white"/>
<path d="M296.433 126.125C298.383 126.125 299.908 125.175 300.508 122.95V126H301.008V113.675H300.508V120.2C300.508 123.975 298.958 125.675 296.458 125.675C294.108 125.675 292.858 124.175 292.858 120.975V113.675H292.358V121.1C292.358 124.625 293.908 126.125 296.433 126.125Z" fill="white"/>
<path d="M308.513 126.125C309.063 126.125 309.513 126.025 310.088 125.875V125.425C309.563 125.6 309.038 125.675 308.588 125.675C307.463 125.675 306.963 124.9 306.963 123.55V114.1H310.088V113.675H306.963V109.3L306.463 109.675V113.675H303.413V114.1H306.463V123.625C306.463 125.2 307.088 126.125 308.513 126.125Z" fill="white"/>
<path d="M317.725 126.125C321.05 126.125 323.375 123.55 323.375 119.825C323.375 116.125 321.075 113.55 317.725 113.55C314.375 113.55 312.075 116.125 312.075 119.825C312.075 123.55 314.4 126.125 317.725 126.125ZM317.725 125.675C314.65 125.675 312.575 123.275 312.575 119.825C312.575 116.375 314.675 114 317.725 114C320.775 114 322.875 116.375 322.875 119.825C322.875 123.275 320.8 125.675 317.725 125.675Z" fill="white"/>
<path d="M327.224 126H327.749V119.775C327.749 115.675 329.474 114 331.449 114C333.699 114 334.874 115.475 334.874 118.7V126H335.374V119.275C335.374 115.675 337.099 114 339.074 114C341.724 114 342.524 116.025 342.524 119V126H343.049V118.925C343.049 115.7 342.049 113.55 339.174 113.55C337.224 113.55 335.824 114.65 335.224 116.8C334.774 114.525 333.499 113.55 331.524 113.55C329.724 113.55 328.299 114.525 327.724 116.525V113.675H327.224V126Z" fill="white"/>
<path d="M351.302 112.05H351.777L354.477 108.575H353.927L351.302 112.05ZM350.502 126.125C352.602 126.125 354.677 124.85 355.402 122.675V126H355.902V118.4C355.902 115.2 354.302 113.55 351.327 113.55C349.352 113.55 348.002 114.25 346.777 115.9L347.152 116.2C348.277 114.65 349.552 114 351.327 114C354.027 114 355.402 115.475 355.402 118.4V119.1H351.227C349.702 119.1 348.477 119.325 347.552 119.975C346.802 120.5 346.327 121.375 346.327 122.6C346.327 124.75 347.852 126.125 350.502 126.125ZM350.552 125.7C348.202 125.7 346.827 124.475 346.827 122.6C346.827 121.55 347.227 120.8 347.902 120.3C348.677 119.75 349.852 119.525 351.277 119.525H355.402V120.575C355.402 123.5 353.202 125.7 350.552 125.7Z" fill="white"/>
<path d="M363.25 126.125C363.8 126.125 364.25 126.025 364.825 125.875V125.425C364.3 125.6 363.775 125.675 363.325 125.675C362.2 125.675 361.7 124.9 361.7 123.55V114.1H364.825V113.675H361.7V109.3L361.2 109.675V113.675H358.15V114.1H361.2V123.625C361.2 125.2 361.825 126.125 363.25 126.125Z" fill="white"/>
<path d="M367.58 110.925H368.255V108.575H367.58V110.925ZM367.68 126H368.18V113.675H367.68V126Z" fill="white"/>
<path d="M377.285 126.125C379.435 126.125 381.06 125 381.81 122.975L381.31 122.775C380.66 124.7 379.16 125.675 377.285 125.675C374.135 125.675 372.585 122.95 372.585 119.825C372.585 116.725 374.135 114 377.285 114C379.16 114 380.66 114.975 381.31 116.9L381.81 116.7C381.035 114.6 379.36 113.55 377.285 113.55C374.16 113.55 372.085 116.15 372.085 119.825C372.085 123.525 374.16 126.125 377.285 126.125Z" fill="white"/>
<path d="M389.893 126.125C393.218 126.125 395.543 123.55 395.543 119.825C395.543 116.125 393.243 113.55 389.893 113.55C386.543 113.55 384.243 116.125 384.243 119.825C384.243 123.55 386.568 126.125 389.893 126.125ZM389.893 125.675C386.818 125.675 384.743 123.275 384.743 119.825C384.743 116.375 386.843 114 389.893 114C392.943 114 395.043 116.375 395.043 119.825C395.043 123.275 392.968 125.675 389.893 125.675Z" fill="white"/>
<path d="M402.432 126.125C404.907 126.125 406.482 124.825 406.482 122.75C406.482 120.25 404.382 119.7 402.132 119.175C400.207 118.725 398.782 118.225 398.782 116.5C398.782 115.025 400.132 113.975 402.032 113.975C403.632 113.975 404.907 114.675 405.682 116.225L406.057 116C405.282 114.325 403.757 113.55 402.032 113.55C399.832 113.55 398.307 114.8 398.307 116.525C398.307 118.575 399.982 119.15 402.007 119.625C403.982 120.1 406.007 120.575 406.007 122.8C406.007 124.625 404.532 125.675 402.432 125.675C400.257 125.675 398.607 124.575 398.007 122.9L397.607 123.15C398.282 124.95 400.082 126.125 402.432 126.125Z" fill="white"/>
</svg>
