<svg width="367" height="73" viewBox="0 0 367 73" fill="none" xmlns="http://www.w3.org/2000/svg">
<path d="M26.7 72.3C43.7 72.3 52.7 63.1 52.7 45.3V1.3H42.6V44.6C42.6 56.6 38.3 63 26.7 63C15 63 11 56.7 11 44.6V1.3H0.800003V45.8C0.800003 63.3 9.8 72.3 26.7 72.3Z" fill="white"/>
<path d="M67.125 71H77.225V41.4H88.625C103.725 41.4 112.025 34.3 112.025 21.2C112.025 8.1 103.925 1.3 88.625 1.3H67.125V71ZM77.225 32.4V10.4H87.625C96.925 10.4 101.925 13.7 101.925 21.3C101.925 29 96.625 32.4 87.625 32.4H77.225Z" fill="white"/>
<path d="M138.789 71H141.389L161.589 7.8L181.689 71H184.289L203.689 1.3H201.589L182.989 68.4L162.689 4.79999H160.389L140.189 68.4L121.589 1.3H119.389L138.789 71Z" fill="white"/>
<path d="M204.729 71H207.029L214.229 50.2H246.429L253.629 71H255.929L231.529 1.3H229.029L204.729 71ZM230.329 3.5L245.829 48.3H214.829L230.329 3.5Z" fill="white"/>
<path d="M284.902 71.6C296.402 71.6 305.102 63.7 305.102 52.7C305.102 41.5 296.102 37.4 285.402 33.4C275.202 29.6 267.602 26.3 267.602 17.2C267.602 8.89999 274.302 2.6 284.302 2.6C291.902 2.6 297.102 6.2 300.602 12.2L302.202 11.1C298.402 4.4 292.302 0.699999 284.302 0.699999C273.202 0.699999 265.602 7.8 265.602 17.3C265.602 27.5 274.302 31.3 283.802 34.9C293.602 38.6 303.102 42 303.102 52.9C303.102 62.6 295.302 69.7 284.902 69.7C273.802 69.7 265.802 63.9 263.902 53L261.902 53.5C263.802 64.6 272.302 71.6 284.902 71.6Z" fill="white"/>
<path d="M320.887 71H322.887V36.6H364.488V71H366.588V1.3H364.488V34.7H322.887V1.3H320.887V71Z" fill="white"/>
</svg>
